<svg xmlns="http://www.w3.org/2000/svg" width="4500" height="4500" viewBox="0 0 4500 4500" version="1.1"><path d="M 2204.500 0.681 C 2065.972 3.309, 1920.054 19.849, 1786.016 48.118 C 1273.989 156.108, 818.917 437.188, 489.922 848.665 C 267.469 1126.889, 113.233 1458.408, 43.599 1808 C 3.399 2009.827, -9.007 2220.008, 7.035 2427.500 C 31.935 2749.575, 124.810 3058.561, 282.097 3342.602 C 429.981 3609.664, 635.762 3848.315, 880.500 4036.591 C 1203.428 4285.019, 1591.314 4441.823, 1994.500 4486.929 C 2036.107 4491.584, 2060.408 4493.660, 2125.500 4498.120 C 2149.399 4499.757, 2320.875 4500.462, 2352 4499.051 C 2764.950 4480.325, 3156.866 4352.146, 3499 4123.915 C 3623.958 4040.557, 3733.406 3950.622, 3842.044 3842.029 C 3950.169 3733.950, 4040.454 3624.065, 4123.889 3499 C 4343.050 3170.489, 4471.593 2790.939, 4496.427 2399 C 4499.800 2345.773, 4500.305 2326.571, 4500.315 2251 C 4500.325 2175.167, 4499.801 2155.104, 4496.436 2102.500 C 4479.128 1831.890, 4412.828 1567.301, 4300.233 1319.500 C 4204.994 1109.895, 4078.768 917.304, 3924.028 745.500 C 3884.001 701.059, 3820.134 636.352, 3777.500 597.046 C 3580.601 415.514, 3360.118 274.185, 3113.826 171.632 C 2827.290 52.321, 2520.702 -5.316, 2204.500 0.681 M 2187 119.004 C 2010.657 124.852, 1844.164 150.127, 1679 196.125 C 1310.954 298.624, 974.562 500.857, 708.621 779.500 C 484.553 1014.270, 315.358 1298.840, 218.701 1603.500 C 130.661 1880.996, 100.436 2165.352, 128.033 2456.500 C 162.610 2821.283, 293.661 3174.125, 507.116 3477.139 C 551.535 3540.196, 620.763 3627.167, 661.180 3670.690 L 666 3675.880 666.010 3385.690 C 666.016 3202.512, 666.389 3090.153, 667.021 3081 C 672.883 2996.068, 703.282 2915.777, 755.049 2848.500 C 806.728 2781.338, 878.422 2730.234, 958.500 2703.479 C 1006.140 2687.562, 1050.087 2681.033, 1109.750 2681.009 L 1132 2681 1132 2441.700 C 1132 2286.476, 1132.363 2197.674, 1133.033 2188.950 C 1141.209 2082.450, 1178.898 1976.949, 1247.181 1869.417 C 1362.963 1687.084, 1569.981 1501.505, 1853 1326.336 C 1924.879 1281.849, 1999.840 1239.286, 2080 1197.446 C 2127.211 1172.804, 2206.541 1134.361, 2227.766 1125.838 C 2244.024 1119.310, 2259.438 1119.659, 2276.483 1126.942 C 2305.355 1139.277, 2398.372 1185.019, 2445.500 1210.058 C 2642.377 1314.655, 2818.506 1430.461, 2959.500 1548.015 C 3064.075 1635.204, 3152.099 1726.321, 3215.950 1813.477 C 3298.880 1926.674, 3349.180 2041.376, 3364.479 2152.177 C 3369.566 2189.017, 3369.308 2174.973, 3369.702 2436.750 L 3370.069 2681 3391.784 2681.010 C 3440.389 2681.031, 3476.110 2685.098, 3514.253 2694.951 C 3592.357 2715.128, 3662.669 2756.866, 3719.045 2816.519 C 3748.700 2847.898, 3772.049 2881.646, 3791.679 2921.500 C 3812.206 2963.176, 3825.525 3006.903, 3831.428 3052 C 3832.328 3058.875, 3833.349 3065.850, 3833.697 3067.500 C 3834.045 3069.150, 3834.593 3206.820, 3834.915 3373.432 L 3835.500 3676.365 3853.388 3655.932 C 4163.982 3301.164, 4347.659 2859.905, 4378.468 2394.500 C 4381.594 2347.279, 4382.153 2331.025, 4382.697 2271.500 C 4383.498 2183.748, 4380.848 2121.014, 4372.917 2040 C 4314.703 1445.384, 4005.173 899.783, 3521.722 539.621 C 3374.699 430.091, 3213.569 339.602, 3044.022 271.350 C 2834.807 187.130, 2613.455 136.996, 2387 122.541 C 2328.712 118.821, 2239.895 117.250, 2187 119.004 M 2237.500 230.663 C 2125.201 236.001, 2022.890 291.291, 1956.506 382.518 C 1920.138 432.496, 1897.451 490.580, 1889.332 554.500 C 1886.822 574.259, 1886.828 620.825, 1889.343 640.500 C 1897.078 701.014, 1916.047 752.491, 1948.489 801 C 1961.973 821.162, 1973.367 835.264, 1990 852.374 C 2051.558 915.700, 2128.576 953.291, 2215.657 962.513 C 2235.220 964.585, 2272.776 964.593, 2292.210 962.530 C 2367.456 954.543, 2433.857 926.312, 2491.500 877.799 C 2511.318 861.120, 2544.082 825.190, 2551.957 811.500 C 2561.822 794.351, 2562.382 772.899, 2553.449 754.328 C 2546.613 740.114, 2531.217 727.636, 2515.448 723.528 C 2507.995 721.587, 2493.752 721.569, 2483.722 723.489 C 2442.392 731.397, 2402.416 723.255, 2367.306 699.777 C 2336.063 678.886, 2312.489 644.926, 2303.522 607.893 C 2293.331 565.805, 2301.310 522.636, 2326.173 485.349 C 2334.677 472.595, 2351.246 455.528, 2363.705 446.688 C 2386.921 430.216, 2413.782 420.714, 2444.500 418.109 C 2464.869 416.382, 2474.915 412.105, 2487.010 400.010 C 2495.665 391.354, 2500.159 383.609, 2503.025 372.404 C 2508.142 352.393, 2502.154 329.456, 2488.080 315.162 C 2476.647 303.550, 2446.240 283.317, 2421.033 270.549 C 2363.792 241.556, 2300.002 227.693, 2237.500 230.663 M 2233.705 349.088 C 2166.220 354.657, 2102.451 388.735, 2059.636 442.109 C 2000.180 516.226, 1988.150 618.991, 2029.006 703.762 C 2037.681 721.761, 2044.150 732.477, 2055.107 747 C 2121.061 834.418, 2235.034 868.591, 2338.351 831.926 C 2354.199 826.302, 2354.517 825.987, 2347.319 823.054 C 2329.870 815.941, 2307.210 802.793, 2289.081 789.260 C 2274.850 778.638, 2248.406 752.406, 2237.676 738.267 C 2213.130 705.924, 2196.309 669.867, 2187.635 631 C 2179.663 595.279, 2179.440 553.230, 2187.025 515.907 C 2195.072 476.307, 2214.416 435.030, 2240.406 402 C 2248.487 391.730, 2274.676 365.769, 2284.847 357.946 L 2293.194 351.526 2289.847 350.836 C 2284.290 349.691, 2260.140 347.991, 2251.550 348.140 C 2247.123 348.217, 2239.092 348.644, 2233.705 349.088 M 3365 964.608 C 3345.631 969.808, 3330.708 983.586, 3323.886 1002.567 C 3320.888 1010.908, 3320.034 1034.623, 3322.393 1044.018 C 3327.567 1064.625, 3342.034 1080.333, 3361.716 1086.715 C 3371.522 1089.895, 3386.222 1090.265, 3395.500 1087.566 C 3414.856 1081.936, 3428.994 1068.489, 3435.703 1049.328 C 3438.213 1042.157, 3438.446 1040.240, 3438.472 1026.500 C 3438.496 1013.728, 3438.171 1010.460, 3436.282 1004.500 C 3430.083 984.936, 3414.098 969.647, 3394.505 964.543 C 3387.089 962.612, 3372.315 962.644, 3365 964.608 M 772.500 1212.870 C 757.553 1217.172, 743.622 1228.373, 736.890 1241.500 C 734.915 1245.350, 729.359 1260.073, 724.542 1274.219 L 715.784 1299.937 710.142 1302.067 C 707.039 1303.238, 694.150 1308.004, 681.500 1312.658 C 668.850 1317.312, 656.475 1322.284, 654 1323.706 C 641.707 1330.772, 632.219 1342.482, 627.397 1356.538 C 623.498 1367.904, 623.489 1382.026, 627.374 1393.500 C 632.063 1407.351, 641.544 1419.164, 653.414 1425.947 C 656.211 1427.546, 670.650 1433.348, 685.500 1438.840 C 700.350 1444.333, 713.240 1449.121, 714.144 1449.480 C 715.234 1449.913, 718.740 1458.794, 724.539 1475.816 C 735.043 1506.645, 738.275 1513.295, 746.990 1522.010 C 758.337 1533.358, 772.184 1539, 788.684 1539 C 805.558 1539, 818.195 1533.806, 830.030 1522.007 C 834.171 1517.878, 838.748 1512.250, 840.200 1509.500 C 841.652 1506.750, 846.951 1492.575, 851.975 1478 C 857 1463.425, 861.648 1450.984, 862.305 1450.354 C 862.962 1449.724, 875.425 1444.836, 890 1439.493 C 904.575 1434.150, 919.188 1428.366, 922.473 1426.639 C 934.555 1420.290, 944.307 1408.736, 949.818 1394.242 C 952.072 1388.311, 952.381 1385.996, 952.381 1375 C 952.381 1364.004, 952.072 1361.689, 949.818 1355.758 C 944.466 1341.683, 934.691 1329.885, 923.276 1323.724 C 920.448 1322.197, 905.433 1316.239, 889.910 1310.484 C 874.388 1304.730, 861.609 1299.904, 861.514 1299.761 C 861.418 1299.617, 857.606 1288.475, 853.042 1275 C 841.861 1241.985, 839.599 1237.346, 830.113 1227.993 C 821.899 1219.893, 813.908 1215.253, 803.505 1212.543 C 795.581 1210.479, 780.243 1210.641, 772.500 1212.870 M 2229 1255.347 C 2031.372 1349.879, 1826.030 1475.022, 1673.555 1593.858 C 1422.627 1789.426, 1280.518 1983.799, 1254.093 2167.586 C 1252.992 2175.239, 1251.527 2186.450, 1250.837 2192.500 C 1249.841 2201.231, 1249.519 2402.458, 1249.278 3168.153 L 1248.975 4132.805 1256.737 4137.078 C 1286.206 4153.296, 1356.244 4187.012, 1401.500 4206.764 C 1435.272 4221.505, 1506.165 4250, 1509.066 4250 C 1509.621 4250, 1510.100 3913.611, 1510.279 3398.250 C 1510.557 2601.408, 1510.686 2545.694, 1512.284 2534 C 1519.514 2481.113, 1532.019 2439.812, 1555.449 2391.441 C 1607.678 2283.611, 1706.144 2175.382, 1848.168 2069.699 C 1938.784 2002.270, 2043.911 1938.153, 2157.500 1881.037 C 2201.523 1858.900, 2227.697 1846.802, 2236.460 1844.539 C 2243.942 1842.607, 2256.611 1842.584, 2264.687 1844.488 C 2281.820 1848.528, 2382.876 1899.395, 2450 1937.766 C 2661.814 2058.847, 2819.801 2191.983, 2906.411 2322.383 C 2921.431 2344.998, 2932.372 2363.945, 2944.011 2387.500 C 2968.190 2436.431, 2980.384 2475.312, 2988.702 2530 C 2990.356 2540.871, 2990.467 2588.217, 2990.732 3396.158 L 2991.013 4250.815 3008.756 4244.021 C 3049.415 4228.452, 3088.913 4211.954, 3132 4192.545 C 3152.543 4183.291, 3241.948 4139.256, 3248.757 4135.039 L 3252.013 4133.021 3251.740 3165.761 C 3251.481 2247.883, 3251.376 2197.765, 3249.699 2184.110 C 3239.003 2097.051, 3208.554 2017.326, 3152.648 1930 C 3098.661 1845.673, 3017.794 1755.356, 2918.321 1668.293 C 2767.392 1536.193, 2567.185 1404.888, 2338 1287.692 C 2315.147 1276.006, 2251.479 1244.898, 2250.687 1245.032 C 2250.584 1245.049, 2240.825 1249.691, 2229 1255.347 M 3794.124 1376.578 C 3780.568 1380.224, 3766.406 1390.987, 3759.286 1403.053 C 3757.519 1406.049, 3751.810 1420.809, 3746.600 1435.853 C 3741.391 1450.897, 3736.920 1463.413, 3736.666 1463.667 C 3736.412 1463.921, 3723.466 1468.845, 3707.898 1474.608 C 3692.330 1480.371, 3677.104 1486.510, 3674.063 1488.250 C 3662.082 1495.105, 3651.193 1509.661, 3647.585 1523.644 C 3646.678 1527.162, 3646 1533.873, 3646 1539.343 C 3646 1556.468, 3652.200 1570.540, 3664.920 1582.282 C 3673.021 1589.761, 3677.198 1591.768, 3709 1603.467 C 3723.575 1608.828, 3735.994 1613.729, 3736.597 1614.357 C 3737.201 1614.986, 3741.434 1626.525, 3746.004 1640 C 3750.574 1653.475, 3755.692 1667.425, 3757.377 1671 C 3761.571 1679.900, 3774.013 1692.381, 3783.053 1696.759 C 3800.209 1705.065, 3819.935 1705.052, 3836.947 1696.723 C 3845.383 1692.593, 3857.388 1680.831, 3861.672 1672.500 C 3863.369 1669.200, 3868.701 1655.025, 3873.521 1641 C 3878.341 1626.975, 3882.783 1614.973, 3883.392 1614.328 C 3884.002 1613.684, 3896.855 1608.599, 3911.955 1603.029 C 3927.055 1597.459, 3941.680 1591.700, 3944.455 1590.231 C 3951.960 1586.258, 3963.864 1573.830, 3967.732 1565.928 C 3972.862 1555.452, 3974.318 1548.181, 3973.725 1536.012 C 3973.130 1523.785, 3970.808 1516.108, 3964.979 1507.089 C 3955.395 1492.260, 3949.123 1488.390, 3912.937 1474.977 C 3896.891 1469.029, 3883.437 1463.788, 3883.040 1463.331 C 3882.643 1462.874, 3878.158 1450.350, 3873.074 1435.500 C 3867.404 1418.939, 3862.437 1406.202, 3860.225 1402.556 C 3852.764 1390.256, 3839.212 1380.114, 3825.448 1376.528 C 3818.063 1374.605, 3801.361 1374.631, 3794.124 1376.578 M 2208.500 1987.845 C 1924.627 2131.799, 1723.113 2302.428, 1655.619 2455.988 C 1640.884 2489.513, 1631.986 2522.468, 1629.020 2554.500 C 1628.051 2564.968, 1627.432 4291, 1628.397 4291 C 1628.616 4291, 1643.803 4295.312, 1662.147 4300.583 C 1812.703 4343.839, 1966.705 4370.232, 2122.500 4379.477 C 2201.080 4384.141, 2293.739 4384.329, 2371 4379.982 C 2535.066 4370.750, 2698.194 4342.432, 2855.755 4295.830 L 2873.009 4290.727 2872.745 3419.613 C 2872.492 2586.145, 2872.403 2548.046, 2870.681 2538 C 2858.221 2465.282, 2823.448 2399.142, 2757.118 2322 C 2741.241 2303.534, 2693.471 2255.764, 2672 2236.881 C 2580.454 2156.370, 2470.328 2081.982, 2336.500 2010.257 C 2310.267 1996.197, 2252.122 1966.981, 2250.466 1967.027 C 2249.935 1967.041, 2231.050 1976.409, 2208.500 1987.845 M 0.453 2250.500 C 0.453 2270.850, 0.586 2279.033, 0.749 2268.685 C 0.912 2258.336, 0.911 2241.686, 0.748 2231.685 C 0.585 2221.683, 0.452 2230.150, 0.453 2250.500 M 1071.500 2800.087 C 933.187 2811.255, 819.183 2911.341, 790.606 3046.688 C 784.060 3077.692, 784.600 3044.383, 784.244 3439.500 L 783.922 3797.500 787.827 3801 C 789.974 3802.925, 800.016 3812.150, 810.141 3821.500 C 889.317 3894.615, 980.190 3965.883, 1073 4027.652 C 1094.918 4042.239, 1130.516 4065, 1131.412 4065 C 1131.736 4065, 1132 3780.150, 1132 3432 L 1132 2799 1106.750 2799.140 C 1092.862 2799.217, 1077 2799.643, 1071.500 2800.087 M 3370 3431.946 L 3370 4065.163 3373.750 4062.881 C 3375.813 4061.626, 3385.600 4055.439, 3395.500 4049.131 C 3500.894 3981.979, 3604.409 3901.990, 3698.253 3815.182 L 3718.056 3796.865 3717.720 3442.182 C 3717.411 3115.721, 3717.249 3086.505, 3715.692 3075 C 3709.004 3025.608, 3694.630 2984.811, 3670.152 2945.747 C 3625.031 2873.740, 3551.580 2822.578, 3468.996 2805.632 C 3447.103 2801.139, 3433.346 2799.859, 3400.750 2799.277 L 3370 2798.729 3370 3431.946" stroke="none" fill="#fcfaf7" fill-rule="evenodd"/></svg>